<svg xmlns="http://www.w3.org/2000/svg" style="width:0; height:0; visibility:hidden;">
    <symbol id="icon_arrow-next" viewBox="0 0 36 52">
       <path fill-rule="evenodd" opacity="0.902" fill="rgb(255, 255, 255)" d="M9.633,52.001 L35.455,26.000 L9.633,-0.001 L0.001,9.564 L16.324,26.000 L0.001,42.436 L9.633,52.001 Z"/> 
    </symbol>
    <symbol id="icon_arrow-prev" viewBox="0 0 36 52">
       <path fill-rule="evenodd" opacity="0.902" fill="rgb(255, 255, 255)" d="M25.836,-0.001 L0.014,26.000 L25.836,52.001 L35.467,42.436 L19.145,26.000 L35.467,9.564 L25.836,-0.001 Z"/> 
    </symbol>
    <symbol id="icon_check" viewBox="0 0 49 41">
       <path fill-rule="evenodd" fill="rgb(232, 102, 60)" d="M48.190,9.146 L40.457,1.414 C39.558,0.515 38.101,0.515 37.201,1.414 L19.079,19.536 L11.662,12.119 C10.763,11.220 9.305,11.220 8.406,12.119 L0.674,19.852 C-0.225,20.750 -0.225,22.208 0.674,23.107 L9.416,31.850 C9.497,31.967 9.588,32.078 9.690,32.181 L17.423,39.913 C17.854,40.345 18.440,40.587 19.051,40.587 C19.661,40.587 20.247,40.345 20.679,39.913 L48.190,12.402 C48.621,11.970 48.864,11.385 48.864,10.774 C48.864,10.163 48.621,9.578 48.190,9.146 Z"/> 
    </symbol>
    <symbol id="icon_dropdown" viewBox="0 0 297.001 297.001">
       <g> <g> <g> <path d="M273.736,0.001H23.264C10.436,0.001,0,10.436,0,23.264v23.789C0,59.88,10.436,70.316,23.264,70.316h250.473
				c12.827,0,23.264-10.435,23.264-23.263V23.264C297,10.436,286.564,0.001,273.736,0.001z"/> <path d="M273.736,113.344H23.264C10.436,113.344,0,123.779,0,136.605v23.789c0,12.827,10.436,23.263,23.264,23.263h250.473
				c12.827,0,23.264-10.435,23.264-23.263v-23.789C297,123.779,286.564,113.344,273.736,113.344z"/> <path d="M273.736,226.686H23.264C10.436,226.686,0,237.121,0,249.949v23.789C0,286.565,10.436,297,23.264,297h250.473
				C286.564,297,297,286.565,297,273.737v-23.789C297,237.121,286.564,226.686,273.736,226.686z"/> </g> </g> </g>                
    </symbol>
    <symbol id="icon_email" viewBox="0 0 504.124 504.124">
       <path style="fill:#D07C40;" d="M0,200.862L252.062,51.2l252.062,149.662v220.554H0V200.862z"/> <path style="fill:#EFEFEF;" d="M55.138,11.815h393.846c8.665,0,15.754,7.089,15.754,15.754v275.692
	c0,8.665-7.089,15.754-15.754,15.754H55.138c-8.665,0-15.754-7.089-15.754-15.754V27.569C39.385,18.905,46.474,11.815,55.138,11.815
	z"/> <path style="fill:#26A6D1;" d="M415.902,43.323l25.206-31.508h7.877c8.665,0,15.754,7.089,15.754,15.754v15.754H415.902z
	 M211.102,43.323l25.206-31.508h55.138L266.24,43.323H211.102z M39.385,43.323V27.569c0-8.665,7.089-15.754,15.754-15.754h39.385
	L69.317,43.323H39.385z"/> <path style="fill:#EFC75E;" d="M504.123,468.677c0,12.997-10.634,23.631-23.631,23.631H23.631C10.634,492.309,0,481.674,0,468.677
	V200.862l252.062,110.277l252.062-110.277v267.815H504.123z"/> <path style="fill:#E8C15B;" d="M504.123,468.677c0,12.997-10.634,23.631-23.631,23.631H23.631C10.634,492.309,0,481.674,0,468.677
	v-47.262l504.123-220.554V468.677z"/> <path style="fill:#D6D9DB;" d="M160.295,151.631l3.151,16.542l-25.206-39.385l-35.446,55.138c-0.394,5.12,22.449,9.058,50.806,9.058
	s51.2-3.938,51.2-9.058l-31.114-46.08C173.686,137.846,160.295,151.631,160.295,151.631z M163.446,129.969
	c5.514,0,9.846-4.332,9.846-9.846s-4.332-9.846-9.846-9.846s-9.846,4.332-9.846,9.846S157.932,129.969,163.446,129.969z
	 M244.185,126.031h157.538c4.332,0,7.877-3.545,7.877-7.877s-3.545-7.877-7.877-7.877H244.185c-4.332,0-7.877,3.545-7.877,7.877
	S239.852,126.031,244.185,126.031z M401.723,141.785H244.185c-4.332,0-7.877,3.545-7.877,7.877s3.545,7.877,7.877,7.877h157.538
	c4.332,0,7.877-3.545,7.877-7.877C409.6,145.329,406.055,141.785,401.723,141.785z M362.338,173.292H244.185
	c-4.332,0-7.877,3.545-7.877,7.877s3.545,7.877,7.877,7.877h118.154c4.332,0,7.877-3.545,7.877-7.877
	C370.215,176.837,366.671,173.292,362.338,173.292z"/> <path style="fill:#E2574C;" d="M313.502,43.323l25.206-31.508h55.138L368.64,43.323H313.502z M108.702,43.323l25.206-31.508h55.138
	L163.84,43.323H108.702z"/>                
    </symbol>
    <symbol id="icon_facebook" viewBox="0 0 512 512">
       <path style="fill:#4D6FA9;" d="M476.69,512H35.31C15.89,512,0,496.11,0,476.69V35.31C0,15.89,15.89,0,35.31,0H476.69
	C496.11,0,512,15.89,512,35.31V476.69C512,496.11,496.11,512,476.69,512"/> <path style="fill:#FFFFFF;" d="M432.552,88.276v88.276h-79.448c-9.71,0-17.655,7.945-17.655,17.655v52.966h88.276v88.276h-88.276
	V512h-88.276V335.448h-70.621v-88.276h70.621v-52.966c0-55.614,42.372-101.517,97.103-105.931H432.552z"/>                
    </symbol>
    <symbol id="icon_gear" viewBox="0 0 46 46">
       <path fill-rule="evenodd" fill="rgb(232, 102, 60)" d="M45.988,25.932 L45.988,20.047 L41.073,19.654 C40.895,18.685 40.644,17.744 40.321,16.834 L44.379,14.038 L41.436,8.942 L36.980,11.060 C36.347,10.319 35.659,9.631 34.919,8.999 L37.037,4.543 L31.941,1.600 L29.144,5.658 C28.235,5.335 27.292,5.084 26.324,4.906 L25.930,-0.009 L20.046,-0.009 L19.653,4.906 C18.684,5.084 17.742,5.335 16.832,5.658 L14.036,1.601 L8.940,4.543 L11.058,8.999 C10.317,9.631 9.628,10.319 8.996,11.060 L4.541,8.943 L1.599,14.038 L5.656,16.834 C5.333,17.744 5.082,18.686 4.904,19.655 L-0.012,20.048 L-0.011,25.932 L4.904,26.326 C5.082,27.294 5.333,28.237 5.656,29.146 L1.600,31.943 L4.542,37.037 L8.996,34.921 C9.629,35.661 10.318,36.350 11.059,36.982 L8.941,41.438 L14.037,44.379 L16.833,40.323 C17.742,40.645 18.684,40.897 19.653,41.075 L20.046,45.990 L25.931,45.990 L26.324,41.075 C27.293,40.897 28.235,40.645 29.144,40.322 L31.941,44.379 L37.037,41.438 L34.919,36.981 C35.659,36.349 36.348,35.661 36.980,34.920 L41.436,37.037 L44.379,31.942 L40.321,29.146 C40.644,28.236 40.895,27.294 41.073,26.326 L45.988,25.932 ZM22.988,34.490 C16.637,34.490 11.488,29.341 11.488,22.990 C11.488,16.638 16.637,11.490 22.988,11.490 C29.340,11.490 34.488,16.638 34.488,22.990 C34.488,29.341 29.340,34.490 22.988,34.490 Z"/> 
    </symbol>
    <symbol id="icon_rss" viewBox="0 0 455.731 455.731">
       <g> <rect x="0" y="0" style="fill:#F78422;" width="455.731" height="455.731"/> <g> <path style="fill:#FFFFFF;" d="M296.208,159.16C234.445,97.397,152.266,63.382,64.81,63.382v64.348
			c70.268,0,136.288,27.321,185.898,76.931c49.609,49.61,76.931,115.63,76.931,185.898h64.348
			C391.986,303.103,357.971,220.923,296.208,159.16z"/> <path style="fill:#FFFFFF;" d="M64.143,172.273v64.348c84.881,0,153.938,69.056,153.938,153.939h64.348
			C282.429,270.196,184.507,172.273,64.143,172.273z"/> <circle style="fill:#FFFFFF;" cx="109.833" cy="346.26" r="46.088"/> </g> </g>                
    </symbol>
    <symbol id="icon_twitter" viewBox="0 0 455.731 455.731">
       <g> <rect x="0" y="0" style="fill:#50ABF1;" width="455.731" height="455.731"/> <path style="fill:#FFFFFF;" d="M60.377,337.822c30.33,19.236,66.308,30.368,104.875,30.368c108.349,0,196.18-87.841,196.18-196.18
		c0-2.705-0.057-5.39-0.161-8.067c3.919-3.084,28.157-22.511,34.098-35c0,0-19.683,8.18-38.947,10.107
		c-0.038,0-0.085,0.009-0.123,0.009c0,0,0.038-0.019,0.104-0.066c1.775-1.186,26.591-18.079,29.951-38.207
		c0,0-13.922,7.431-33.415,13.932c-3.227,1.072-6.605,2.126-10.088,3.103c-12.565-13.41-30.425-21.78-50.25-21.78
		c-38.027,0-68.841,30.805-68.841,68.803c0,5.362,0.617,10.581,1.784,15.592c-5.314-0.218-86.237-4.755-141.289-71.423
		c0,0-32.902,44.917,19.607,91.105c0,0-15.962-0.636-29.733-8.864c0,0-5.058,54.416,54.407,68.329c0,0-11.701,4.432-30.368,1.272
		c0,0,10.439,43.968,63.271,48.077c0,0-41.777,37.74-101.081,28.885L60.377,337.822z"/> </g>                
    </symbol>
    <symbol id="icon_user" viewBox="0 0 42 40">
       <path fill-rule="evenodd" fill="rgb(232, 102, 60)" d="M27.805,22.076 C30.816,19.848 32.768,16.271 32.768,12.239 C32.768,5.483 27.293,0.007 20.537,0.007 C13.782,0.007 8.306,5.483 8.306,12.239 C8.306,16.271 10.258,19.848 13.268,22.076 C5.512,24.814 -0.003,31.801 -0.003,39.993 L41.076,39.993 C41.076,31.801 35.561,24.814 27.805,22.076 Z"/> 
    </symbol>
    <symbol id="icon_vimeo" viewBox="0 0 455.731 455.731">
       <g> <rect x="0" y="0" style="fill:#1AB7EA;" width="455.731" height="455.731"/> <path style="fill:#FFFFFF;" d="M49.642,157.084l17.626,22.474c0,0,22.033-17.186,29.965-17.186c4.927,0,15.423,5.729,22.033,25.558
		c6.61,19.83,34.441,122.62,36.134,127.351c7.607,21.26,17.626,60.811,48.473,66.54s70.065-25.558,91.657-48.473
		c21.592-22.914,106.64-120.741,110.165-179.349c3.26-54.191-14.517-66.765-22.474-71.828c-14.542-9.254-38.778-12.338-61.692-4.407
		s-57.726,33.931-66.98,80.2c0,0,31.287-11.457,42.744-0.441s8.373,35.253-1.322,53.32s-37.015,59.93-47.151,61.252
		c-10.135,1.322-18.067-18.508-19.389-23.796c-1.322-5.288-18.067-77.997-24.236-120.3s-33.049-49.354-45.829-49.354
		C146.587,78.646,124.554,88.341,49.642,157.084z"/> </g>                
    </symbol></svg>